<svg width="86" height="101" viewBox="0 0 86 101" fill="none" xmlns="http://www.w3.org/2000/svg">
<mask id="mask0_19_2962" style="mask-type:luminance" maskUnits="userSpaceOnUse" x="0" y="0" width="86" height="101">
<path fill-rule="evenodd" clip-rule="evenodd" d="M0 0.952827H85.6469V100.47H0V0.952827Z" fill="white"/>
</mask>
<g mask="url(#mask0_19_2962)">
<path fill-rule="evenodd" clip-rule="evenodd" d="M33.1506 2.08241C14.3127 5.88896 -2.02339 25.1199 0.203918 50.7215C2.43122 76.3241 22.5417 107.521 67.712 99.0538C86.4735 94.4993 84.7265 73.6114 83.8404 63.3122C82.9552 53.014 90.7378 34.9732 79.4969 17.6679C68.257 0.363501 46.4178 -0.598857 33.1506 2.08241Z" fill="#EE413C"/>
</g>
<path fill-rule="evenodd" clip-rule="evenodd" d="M16.4448 45.6129C6.8176 50.5057 6.9007 71.1726 18.903 77.8862C30.9063 84.5999 48.3208 80.7657 51.1839 75.427C55.5013 67.3737 45.3988 52.5848 35.5261 47.3118C27.1687 42.8488 21.3197 43.1346 16.4448 45.6129Z" fill="#FFD91D"/>
<path fill-rule="evenodd" clip-rule="evenodd" d="M22.0981 51.4784C14.8587 55.1582 14.8509 69.0514 23.8771 74.0995C32.9042 79.1486 44.5354 76.412 46.6187 72.3606C49.0557 67.6231 43.8725 56.7218 36.4476 52.7561C30.1628 49.3993 25.7642 49.6156 22.0981 51.4784Z" fill="#F3DFA2"/>
<path fill-rule="evenodd" clip-rule="evenodd" d="M83.8409 63.3124C83.2533 56.4759 86.4788 46.2282 85.4314 35.0496C83.349 31.4841 79.7573 30.0634 74.1113 33.0115C68.0835 36.1587 57.5007 49.04 63.2926 65.0599C65.4108 70.9198 76.5859 72.9198 82.7721 66.3624C83.1828 65.927 83.579 65.3648 83.9587 64.7083C83.9191 64.2271 83.8795 63.7564 83.8409 63.3124Z" fill="#FFD91D"/>
<path fill-rule="evenodd" clip-rule="evenodd" d="M72.744 38.9757C68.2227 41.3368 61.6877 50.403 66.0321 62.4201C67.6217 66.8155 74.6003 68.9127 79.2404 63.9932C84.0458 58.8994 86.4364 31.8257 72.744 38.9757Z" fill="#F3DFA2"/>
<path fill-rule="evenodd" clip-rule="evenodd" d="M42.1708 71.8386C39.6334 66.3827 31.8228 63.0554 26.7855 67.4899C26.3285 67.8911 26.6609 68.8286 27.3344 68.6343C29.9327 67.8863 32.448 67.064 35.1691 67.7091C37.8216 68.3379 40.0131 70.0483 41.5476 72.235C41.794 72.5856 42.3428 72.2093 42.1708 71.8386Z" fill="#1B122E"/>
<path fill-rule="evenodd" clip-rule="evenodd" d="M70.3589 62.9803C71.1812 57.955 74.1236 54.6592 77.6863 51.2309C78.1134 50.8183 77.6873 50.0847 77.1065 50.3429C72.2702 52.4915 69.7492 57.9293 69.2834 62.8888C69.2187 63.5786 70.2497 63.6491 70.3589 62.9803Z" fill="#1B122E"/>
<path fill-rule="evenodd" clip-rule="evenodd" d="M69.739 41.7207C67.9136 41.8732 66.3869 43.795 65.3868 45.1347C64.0572 46.9155 62.8483 48.9879 63.8958 51.1661C64.2166 51.834 65.0756 52.3257 65.8342 52.1409C68.2035 51.5606 69.0761 49.5463 69.7863 47.4167C70.3178 45.8236 71.0976 43.6045 70.2801 41.9932C70.1728 41.7817 69.966 41.7017 69.739 41.7207Z" fill="#1B122E"/>
<path fill-rule="evenodd" clip-rule="evenodd" d="M32.4277 56.1187C33.1649 57.7424 35.3893 58.5732 36.9663 59.1678C39.1154 59.9777 41.2257 60.6094 43.2057 59.1516C43.8347 58.6876 43.9922 57.7252 43.6676 57.0506C42.6201 54.8696 40.3 54.4961 38.0515 54.3741C36.3489 54.2826 33.8394 54.2302 32.5562 55.5327C32.3967 55.6947 32.3301 55.9043 32.4277 56.1187Z" fill="#1B122E"/>
<path fill-rule="evenodd" clip-rule="evenodd" d="M68.6859 71.1621C69.0898 70.0521 59.7583 55.105 56.5744 56.2989C53.9683 57.2784 51.9343 76.2693 53.2929 76.5018" fill="#FFD91D"/>
<path fill-rule="evenodd" clip-rule="evenodd" d="M61.7519 77.2132C55.4092 79.1436 44.8041 82.368 47.4614 89.9735C49.7496 96.5194 61.7316 94.023 66.0664 91.539C69.9761 89.2998 79.3868 86.5347 78.2958 78.6062C77.2039 70.6777 64.9813 76.2308 61.7519 77.2132Z" fill="#FFD91D"/>
<path fill-rule="evenodd" clip-rule="evenodd" d="M61.9718 78.8582C57.1288 80.3323 49.0322 82.7944 51.0604 88.6009C52.8075 93.5985 61.9564 91.6929 65.2659 89.7958C68.2517 88.0864 75.4361 85.9749 74.6032 79.9206C73.7702 73.8673 64.4378 78.1074 61.9718 78.8582Z" fill="#F3DFA2"/>
<path fill-rule="evenodd" clip-rule="evenodd" d="M57.4805 58.5418C55.6001 59.2469 54.1333 72.9476 55.1131 73.1153C56.0929 73.2821 65.9259 70.0634 66.2178 69.263C66.5086 68.4627 59.7765 57.6804 57.4805 58.5418Z" fill="#F3DFA2"/>
<path fill-rule="evenodd" clip-rule="evenodd" d="M62.8508 82.2146C61.0535 82.7205 54.7833 81.8525 53.6131 83.8963C52.4429 85.9392 53.0584 90.4823 64.6704 87.1883C76.2823 83.8935 73.452 78.8911 71.1532 78.5319C68.8544 78.1727 62.8508 82.2146 62.8508 82.2146Z" fill="white"/>
<path fill-rule="evenodd" clip-rule="evenodd" d="M59.0867 82.4389C59.3534 84.3426 59.6664 86.3169 60.2056 88.1673C60.6501 88.1044 61.1168 88.0272 61.6145 87.93C61.2067 86.0892 60.7013 84.2607 60.2887 82.415C59.9022 82.4208 59.4983 82.4284 59.0867 82.4389Z" fill="#1B122E"/>
<path fill-rule="evenodd" clip-rule="evenodd" d="M66.0479 80.2894C66.76 82.1722 67.4673 84.1112 68.3979 85.8749C68.8143 85.691 69.1912 85.5052 69.5449 85.3175C68.9409 83.4051 68.0384 81.5338 67.2113 79.6891C66.8161 79.8816 66.4257 80.0836 66.0479 80.2894Z" fill="#1B122E"/>
<path fill-rule="evenodd" clip-rule="evenodd" d="M53.8404 37.753C53.8975 37.753 53.8975 37.6663 53.8404 37.6663C53.7834 37.6663 53.7834 37.753 53.8404 37.753Z" fill="#FFD91D"/>
<path fill-rule="evenodd" clip-rule="evenodd" d="M18.9506 31.507C17.563 30.4218 15.2873 30.6019 13.9809 31.7186C11.9188 33.4823 11.7468 36.5723 13.521 38.6133C14.6612 39.9253 16.2411 41.0677 18.0645 40.2312C19.1709 39.7252 20.1381 38.3903 20.5865 37.2764C21.46 35.1087 20.7691 32.9296 18.9506 31.507Z" fill="#FFD91D"/>
<path fill-rule="evenodd" clip-rule="evenodd" d="M4.0552 39.1404C1.81051 39.654 0.142686 41.7531 0.610371 44.0885C1.22397 47.1499 4.26972 48.7974 7.26619 48.2162C9.95635 47.6931 11.1227 44.9813 10.1718 42.5954C9.23743 40.2524 6.6497 38.5468 4.0552 39.1404Z" fill="#FFD91D"/>
<path fill-rule="evenodd" clip-rule="evenodd" d="M3.62335 59.1764C4.63795 59.0878 5.37427 58.6047 6.12218 57.9691C7.39768 56.8848 6.84207 55.2155 5.51341 54.5332C5.67092 54.6123 5.63903 54.5914 5.41775 54.4703C5.15975 54.3093 4.89112 54.1645 4.6138 54.0368C4.06591 53.8367 3.19625 53.7662 2.62323 53.872C1.88209 54.0073 1.19699 54.4808 0.757324 55.1068C0.947684 56.2731 1.17573 57.4451 1.44049 58.6199C2.05892 59.042 2.84452 59.244 3.62335 59.1764Z" fill="#FFD91D"/>
<path fill-rule="evenodd" clip-rule="evenodd" d="M75.9623 18.6485C73.3562 20.6256 74.0452 24.3207 76.4367 26.1006C77.3276 26.7638 78.7162 26.8924 79.7076 26.376C80.9957 25.7052 82.0084 24.4389 82.3978 23.0582C81.6692 21.3927 80.7918 19.7252 79.7405 18.0635C78.5172 17.6032 77.173 17.7309 75.9623 18.6485Z" fill="#FFD91D"/>
<path fill-rule="evenodd" clip-rule="evenodd" d="M33.4501 19.7586C37.0572 22.1426 38.9589 25.6052 39.4488 29.8424C39.7899 32.7857 39.0623 36.7705 40.3658 39.5003C41.3157 41.4908 43.7546 42.3398 45.1354 40.2807C45.1606 40.2445 45.1209 40.1997 45.0804 40.2159C42.1109 41.4536 42.827 32.2455 42.8086 31.1802C42.77 28.962 42.5883 26.7429 41.8636 24.6276C40.6093 20.9687 37.9066 17.9178 34.6183 15.8682C31.0247 13.6281 26.7324 12.5762 22.5261 12.2751C19.9365 12.0884 16.9854 12.2999 14.2508 12.0369C12.9096 13.2918 11.638 14.6458 10.4456 16.0922C10.9103 16.236 11.3819 16.3628 11.8573 16.459C19.2369 17.9521 26.6377 15.2565 33.4501 19.7586Z" fill="#FFD91D"/>
<path fill-rule="evenodd" clip-rule="evenodd" d="M47.5288 14.5851C46.8998 18.4917 47.4737 22.5774 49.5426 25.9933C50.5408 27.6426 51.8539 29.0119 53.2725 30.3115C54.4794 31.4187 62.0029 36.4887 59.0847 38.3696C59.0519 38.3906 59.0731 38.4458 59.1098 38.4468C62.257 38.5468 62.6136 35.5321 61.0695 33.3663C59.3176 30.9109 56.5559 29.231 54.5731 26.9642C51.5901 23.556 50.5678 19.6008 51.4897 15.1901C52.5854 9.94668 55.9916 6.59082 59.1746 2.94815C57.4082 2.42885 55.6235 2.01723 53.8397 1.71233C53.7972 1.76378 53.7527 1.81618 53.7112 1.86764C50.7263 5.56462 48.2893 9.86569 47.5288 14.5851Z" fill="#FFD91D"/>
<path fill-rule="evenodd" clip-rule="evenodd" d="M33.9729 9.72135C34.0357 9.70229 34.0705 9.59176 33.9855 9.5727C31.5678 9.0334 29.2275 8.45504 27.1123 7.11631C26.1566 6.51126 25.3246 5.74804 24.4791 5.00484C23.623 5.41455 22.7813 5.86524 21.9513 6.3407C23.2732 7.13822 24.4153 8.17871 25.8358 8.90191C28.3356 10.1749 31.2818 10.5236 33.9729 9.72135Z" fill="#FFD91D"/>
<path fill-rule="evenodd" clip-rule="evenodd" d="M43.247 6.65437C43.218 6.68772 43.2644 6.7306 43.2992 6.71535C46.0667 5.54623 46.9073 3.54624 47.748 1.03839C46.8213 0.988842 45.9043 0.964068 44.9951 0.958351C45.1245 2.92118 44.8472 4.83161 43.247 6.65437Z" fill="#FFD91D"/>
<path fill-rule="evenodd" clip-rule="evenodd" d="M57.4706 22.4185C57.5102 22.4804 57.6252 22.4795 57.6281 22.3899C57.7412 18.8072 57.3672 15.561 58.836 12.1441C60.0951 9.2132 62.3398 6.99882 64.8222 5.0541C64.1786 4.75681 63.5273 4.48335 62.8712 4.22227C57.2271 8.00596 53.6712 16.3756 57.4706 22.4185Z" fill="#FFD91D"/>
<path fill-rule="evenodd" clip-rule="evenodd" d="M8.00474 25.4402C14.0846 25.8413 25.3719 21.1496 29.3897 26.9171C29.7937 27.4964 30.7377 26.8723 30.4285 26.2577C28.5761 22.5836 24.9371 21.7537 21.042 21.4764C17.3961 21.2172 11.5791 21.7708 7.20368 20.5665C6.32242 21.9595 5.50301 23.4107 4.76379 24.9247C5.77164 25.2086 6.88191 25.3659 8.00474 25.4402Z" fill="#FFD91D"/>
<path fill-rule="evenodd" clip-rule="evenodd" d="M33.1506 2.08193C19.6515 4.80988 7.44042 15.4597 2.42053 30.6973C3.15395 29.6988 3.93858 28.7354 4.75026 27.8112C12.64 18.8327 23.42 12.3611 35.1305 9.57117C46.8419 6.78129 59.4289 7.68552 70.606 12.1219C73.2903 13.1872 75.9032 14.4773 78.3469 16.0085C66.821 0.305852 45.979 -0.509771 33.1506 2.08193Z" fill="#EE413C"/>
<path opacity="0.01" fill-rule="evenodd" clip-rule="evenodd" d="M17.1991 87.0523C28.1511 97.3676 44.6698 103.373 67.712 99.0541C79.3346 96.2318 83.0838 87.1418 84.0453 78.1833C76.6927 89.3991 71.0235 92.8226 55.8923 94.1509C37.64 95.7554 29.413 90.9722 17.1991 87.0523Z" fill="#CCCCCC"/>
</svg>
